<svg width="40" height="40" viewBox="0 0 40 40" fill="none" xmlns="http://www.w3.org/2000/svg">
<path d="M31.6625 33.3333C17.4431 33.3535 6.65147 22.4325 6.66668 8.33752C6.66668 7.41704 7.41288 6.66667 8.33335 6.66667H12.7323C13.5582 6.66667 14.2599 7.27355 14.3812 8.09055C14.6719 10.0487 15.242 11.9549 16.0741 13.7512L16.2454 14.1208C16.4835 14.6348 16.3221 15.2456 15.8611 15.5748C14.4988 16.5477 13.9782 18.5059 15.0395 20.0339C16.3713 21.9514 18.0501 23.6298 19.9671 24.961C21.495 26.022 23.453 25.5015 24.4258 24.1394C24.7553 23.6782 25.3663 23.5167 25.8807 23.7549L26.2486 23.9254C28.045 24.7575 29.9514 25.3276 31.9097 25.6183C32.7267 25.7395 33.3333 26.4411 33.3333 27.2671V31.6666C33.3333 32.5871 32.5853 33.3333 31.6648 33.3333L31.6625 33.3333Z" fill="#181818"/>
</svg>
