<svg width="92" height="69" viewBox="0 0 92 69" fill="none" xmlns="http://www.w3.org/2000/svg">
<path d="M44.9466 0L42.1374 18.1579C41.2679 23.6725 39.2948 29.557 36.2181 35.8114C33.2083 41.9985 29.329 48.0175 24.5802 53.8684C19.8313 59.652 14.4471 64.6959 8.42748 69L0 60.4254C5.95274 54.5746 11.2366 48.0512 15.8517 40.8553C20.5336 33.5921 23.51 26.1272 24.7808 18.4605L27.7906 0H44.9466ZM92 0L89.1908 18.1579C88.3213 23.6725 86.3482 29.557 83.2715 35.8114C80.2617 41.9985 76.3824 48.0175 71.6336 53.8684C66.8848 59.652 61.5005 64.6959 55.4809 69L47.0534 60.4254C53.0062 54.5746 58.2901 48.0512 62.9051 40.8553C67.5871 33.5921 70.5634 26.1272 71.8342 18.4605L74.9444 0H92Z" fill="#F4F6FD"/>
</svg>
