<svg width="102" height="102" viewBox="0 0 102 102" fill="none" xmlns="http://www.w3.org/2000/svg">
<path d="M50.9996 1.59998C23.7496 1.59998 1.59961 23.75 1.59961 51C1.59961 78.25 23.7496 100.4 50.9996 100.4C78.2497 100.4 100.4 78.25 100.4 51C100.4 23.75 78.2497 1.59998 50.9996 1.59998Z" fill="white"/>
<path d="M51 102C22.95 102 0 79.05 0 51C0 22.95 22.95 0 51 0C79.05 0 102 22.95 102 51C102 79.05 79.05 102 51 102ZM51 3.18321C24.7 3.18321 3.18321 24.7 3.18321 51C3.18321 77.3 24.7 98.8168 51 98.8168C77.3 98.8168 98.8168 77.3 98.8168 51C98.8168 24.7 77.3 3.18321 51 3.18321Z" fill="#181818"/>
<path fill-rule="evenodd" clip-rule="evenodd" d="M45.2504 66.3002L30.4336 51.4835L35.2168 46.85L45.4169 57.0501L66.7836 35.5501L71.4003 40.1668L45.2504 66.3002Z" fill="#181818"/>
</svg>
