<svg width="89" height="28" viewBox="0 0 89 28" fill="none" xmlns="http://www.w3.org/2000/svg">
<path d="M0.334342 27.0587V8.1848H4.65691V27.0587H0.334342ZM2.50757 5.50608C1.82296 5.50608 1.23388 5.27261 0.740329 4.80568C0.246776 4.33055 0 3.76122 0 3.09768C0 2.42595 0.246776 1.85662 0.740329 1.38969C1.23388 0.914565 1.82296 0.677002 2.50757 0.677002C3.20013 0.677002 3.78921 0.914565 4.2748 1.38969C4.76836 1.85662 5.01513 2.42595 5.01513 3.09768C5.01513 3.76122 4.76836 4.33055 4.2748 4.80568C3.78921 5.27261 3.20013 5.50608 2.50757 5.50608Z" fill="white"/>
<path d="M18.9248 27.0587H10.6379V1.89349H19.092C21.52 1.89349 23.6056 2.39728 25.349 3.40488C27.1003 4.40428 28.4456 5.84194 29.385 7.71787C30.3243 9.59379 30.794 11.8383 30.794 14.4515C30.794 17.0729 30.3203 19.3257 29.373 21.2098C28.4337 23.0939 27.0764 24.5398 25.3012 25.5473C23.534 26.5549 21.4085 27.0587 18.9248 27.0587ZM15.068 23.1144H18.7099C20.4135 23.1144 21.8344 22.7949 22.9728 22.1559C24.1111 21.5088 24.9669 20.5462 25.54 19.2683C26.1132 17.9822 26.3998 16.3766 26.3998 14.4515C26.3998 12.5265 26.1132 10.9291 25.54 9.65933C24.9669 8.3814 24.1191 7.42706 22.9966 6.79629C21.8822 6.15733 20.497 5.83785 18.8413 5.83785H15.068V23.1144Z" fill="white"/>
<path d="M44.2768 27.4274C42.4379 27.4274 40.8498 27.0342 39.5124 26.2477C38.183 25.4531 37.1601 24.3309 36.4437 22.8809C35.7272 21.4228 35.369 19.7066 35.369 17.7324C35.369 15.7909 35.7272 14.087 36.4437 12.6207C37.1681 11.1461 38.1791 9.99929 39.4766 9.1801C40.7742 8.35273 42.2986 7.93904 44.0499 7.93904C45.1803 7.93904 46.247 8.12746 47.2501 8.50428C48.2611 8.87291 49.1526 9.44634 49.9248 10.2246C50.7049 11.0028 51.3179 11.994 51.7637 13.1982C52.2095 14.3942 52.4324 15.8196 52.4324 17.4743V18.8383H37.3989V15.84H48.2889C48.281 14.9881 48.1018 14.2304 47.7516 13.5668C47.4013 12.8951 46.9117 12.3667 46.2829 11.9817C45.6619 11.5967 44.9375 11.4042 44.1096 11.4042C43.226 11.4042 42.4499 11.6254 41.7812 12.0677C41.1125 12.5019 40.5911 13.0753 40.2169 13.788C39.8508 14.4925 39.6637 15.2666 39.6557 16.1104V18.7277C39.6557 19.8254 39.8508 20.7674 40.2408 21.5538C40.6309 22.3321 41.1762 22.9301 41.8767 23.3478C42.5772 23.7574 43.3972 23.9622 44.3365 23.9622C44.9654 23.9622 45.5346 23.8721 46.0441 23.6919C46.5535 23.5035 46.9953 23.2291 47.3695 22.8686C47.7436 22.5082 48.0262 22.0617 48.2173 21.5293L52.2533 21.9962C51.9985 23.0939 51.5129 24.0523 50.7965 24.8715C50.088 25.6825 49.1805 26.3133 48.074 26.7638C46.9675 27.2062 45.7017 27.4274 44.2768 27.4274Z" fill="white"/>
<path d="M61.7568 15.9998V27.0587H57.4342V8.1848H61.5658V11.3919H61.7807C62.2026 10.3352 62.8753 9.49549 63.7987 8.87291C64.7301 8.25033 65.8804 7.93904 67.2496 7.93904C68.5153 7.93904 69.6178 8.21757 70.5572 8.77461C71.5045 9.33165 72.2368 10.1385 72.7543 11.1953C73.2797 12.252 73.5384 13.5341 73.5304 15.0413V27.0587H69.2079V15.7295C69.2079 14.4679 68.8895 13.4808 68.2526 12.7681C67.6237 12.0554 66.752 11.6991 65.6376 11.6991C64.8813 11.6991 64.2087 11.8711 63.6196 12.2152C63.0385 12.551 62.5807 13.0384 62.2464 13.6774C61.92 14.3164 61.7568 15.0905 61.7568 15.9998Z" fill="white"/>
<path d="M88.4282 8.1848V11.6254H77.8845V8.1848H88.4282ZM80.4876 3.66292H84.8102V21.3818C84.8102 21.9798 84.8978 22.4386 85.0729 22.758C85.256 23.0693 85.4948 23.2823 85.7893 23.397C86.0839 23.5117 86.4103 23.569 86.7685 23.569C87.0391 23.569 87.2859 23.5485 87.5088 23.5076C87.7397 23.4666 87.9148 23.4298 88.0342 23.397L88.7626 26.8744C88.5317 26.9563 88.2014 27.0465 87.7715 27.1448C87.3496 27.2431 86.8322 27.3004 86.2192 27.3168C85.1366 27.3495 84.1614 27.1816 83.2937 26.813C82.426 26.4362 81.7374 25.8545 81.2279 25.0681C80.7264 24.2817 80.4797 23.2987 80.4876 22.1191V3.66292Z" fill="white"/>
<path d="M0.740329 4.80568C1.23388 5.27261 1.82296 5.50608 2.50757 5.50608C3.20013 5.50608 3.78921 5.27261 4.2748 4.80568C4.76836 4.33055 5.01513 3.76122 5.01513 3.09768C5.01513 2.42595 4.76836 1.85662 4.2748 1.38969C3.78921 0.914565 3.20013 0.677002 2.50757 0.677002C1.82296 0.677002 1.23388 0.914565 0.740329 1.38969C0.246776 1.85662 0 2.42595 0 3.09768C0 3.76122 0.246776 4.33055 0.740329 4.80568Z" fill="white"/>
<circle cx="2.49953" cy="3.07204" r="2.49953" fill="#FF1414"/>
</svg>
