<svg width="14" height="14" viewBox="0 0 14 14" fill="none" xmlns="http://www.w3.org/2000/svg">
<path d="M9.625 0H4.375C1.95913 0 0 1.95913 0 4.375V9.625C0 12.0409 1.95913 14 4.375 14H9.625C12.0409 14 14 12.0409 14 9.625V4.375C14 1.95913 12.0409 0 9.625 0ZM12.6875 9.625C12.6875 11.3137 11.3137 12.6875 9.625 12.6875H4.375C2.68625 12.6875 1.3125 11.3137 1.3125 9.625V4.375C1.3125 2.68625 2.68625 1.3125 4.375 1.3125H9.625C11.3137 1.3125 12.6875 2.68625 12.6875 4.375V9.625Z" fill="#757575"/>
<path d="M6.99988 3.5C5.067 3.5 3.49988 5.06713 3.49988 7C3.49988 8.93288 5.067 10.5 6.99988 10.5C8.93275 10.5 10.4999 8.93288 10.4999 7C10.4999 5.06713 8.93275 3.5 6.99988 3.5ZM6.99988 9.1875C5.79413 9.1875 4.81238 8.20575 4.81238 7C4.81238 5.79338 5.79413 4.8125 6.99988 4.8125C8.20563 4.8125 9.18738 5.79338 9.18738 7C9.18738 8.20575 8.20563 9.1875 6.99988 9.1875Z" fill="#757575"/>
<path d="M10.7625 3.70374C11.0201 3.70374 11.2289 3.49494 11.2289 3.23737C11.2289 2.9798 11.0201 2.771 10.7625 2.771C10.5049 2.771 10.2961 2.9798 10.2961 3.23737C10.2961 3.49494 10.5049 3.70374 10.7625 3.70374Z" fill="#757575"/>
</svg>
