<svg width="20" height="20" viewBox="0 0 20 20" fill="none" xmlns="http://www.w3.org/2000/svg">
<path d="M17.4085 16.5247L13.0511 12.1673C13.8775 11.147 14.375 9.84981 14.375 8.43752C14.375 5.16359 11.7114 2.5 8.4375 2.5C5.16356 2.5 2.5 5.16359 2.5 8.43752C2.5 11.7115 5.16359 14.375 8.43753 14.375C9.84981 14.375 11.147 13.8775 12.1673 13.0511L16.5247 17.4085C16.6468 17.5305 16.8446 17.5305 16.9667 17.4085L17.4085 16.9666C17.5305 16.8446 17.5305 16.6467 17.4085 16.5247ZM8.43753 13.125C5.85269 13.125 3.75001 11.0224 3.75001 8.43752C3.75001 5.85268 5.85269 3.75001 8.43753 3.75001C11.0224 3.75001 13.125 5.85268 13.125 8.43752C13.125 11.0224 11.0224 13.125 8.43753 13.125Z" fill="#181818"/>
</svg>
