<svg width="20" height="20" viewBox="0 0 20 20" fill="none" xmlns="http://www.w3.org/2000/svg">
<path d="M10 17.5C8.94744 16.6022 7.97182 15.6179 7.08333 14.5575C5.75 12.965 4.16667 10.5933 4.16667 8.33333C4.16548 5.97296 5.58687 3.84449 7.76756 2.94116C9.94824 2.03784 12.4584 2.5377 14.1267 4.2075C15.2237 5.29967 15.8383 6.78532 15.8334 8.33333C15.8334 10.5933 14.25 12.965 12.9167 14.5575C12.0282 15.6179 11.0526 16.6022 10 17.5ZM10 5.83333C9.10684 5.83333 8.28152 6.30983 7.83494 7.08333C7.38835 7.85684 7.38835 8.80983 7.83494 9.58333C8.28152 10.3568 9.10684 10.8333 10 10.8333C11.3807 10.8333 12.5 9.71405 12.5 8.33333C12.5 6.95262 11.3807 5.83333 10 5.83333Z" fill="#888888"/>
</svg>
