<svg width="40" height="40" viewBox="0 0 40 40" fill="none" xmlns="http://www.w3.org/2000/svg">
<path d="M23.0333 36.6667H16.9667C16.1835 36.6667 15.5059 36.1217 15.3383 35.3567L14.66 32.2167C13.7551 31.8202 12.897 31.3244 12.1017 30.7383L9.04 31.7133C8.29333 31.9514 7.48164 31.6372 7.09 30.9583L4.05 25.7067C3.66265 25.0275 3.7961 24.1708 4.37167 23.6417L6.74667 21.475C6.63866 20.4935 6.63866 19.5032 6.74667 18.5217L4.37167 16.36C3.79525 15.8306 3.66175 14.9729 4.05 14.2933L7.08333 9.03833C7.47498 8.3595 8.28667 8.04523 9.03333 8.28333L12.095 9.25833C12.5018 8.95693 12.9252 8.67871 13.3633 8.425C13.7839 8.18782 14.2167 7.97308 14.66 7.78167L15.34 4.645C15.5068 3.87995 16.1836 3.33416 16.9667 3.33333H23.0333C23.8164 3.33416 24.4932 3.87995 24.66 4.645L25.3467 7.78333C25.8146 7.98919 26.2704 8.2218 26.7117 8.48C27.1238 8.71796 27.5222 8.97893 27.905 9.26167L30.9683 8.28667C31.7145 8.04945 32.5252 8.3636 32.9167 9.04167L35.95 14.2967C36.3374 14.9758 36.2039 15.8325 35.6283 16.3617L33.2533 18.5283C33.3613 19.5098 33.3613 20.5002 33.2533 21.4817L35.6283 23.6483C36.2039 24.1775 36.3374 25.0342 35.95 25.7133L32.9167 30.9683C32.5252 31.6464 31.7145 31.9606 30.9683 31.7233L27.905 30.7483C27.5174 31.0338 27.1146 31.2981 26.6983 31.54C26.2614 31.7932 25.8107 32.0219 25.3483 32.225L24.66 35.3567C24.4925 36.1211 23.8159 36.666 23.0333 36.6667ZM19.9933 13.3333C16.3114 13.3333 13.3267 16.3181 13.3267 20C13.3267 23.6819 16.3114 26.6667 19.9933 26.6667C23.6752 26.6667 26.66 23.6819 26.66 20C26.66 16.3181 23.6752 13.3333 19.9933 13.3333Z" fill="#181818"/>
</svg>
