<svg width="20" height="20" viewBox="0 0 20 20" fill="none" xmlns="http://www.w3.org/2000/svg">
<path d="M15.8312 16.6667C8.72156 16.6767 3.32574 11.2162 3.33334 4.16876C3.33334 3.70852 3.70644 3.33333 4.16668 3.33333H6.36614C6.77912 3.33333 7.12994 3.63677 7.19058 4.04527C7.33593 5.02433 7.62098 5.97747 8.03707 6.87559L8.12271 7.06042C8.24177 7.31742 8.16107 7.62278 7.93056 7.78739C7.24942 8.27382 6.9891 9.25296 7.51975 10.017C8.18565 10.9757 9.02504 11.8149 9.98356 12.4805C10.7475 13.011 11.7265 12.7507 12.2129 12.0697C12.3776 11.8391 12.6832 11.7583 12.9403 11.8775L13.1243 11.9627C14.0225 12.3787 14.9757 12.6638 15.9549 12.8091C16.3634 12.8698 16.6667 13.2206 16.6667 13.6336V15.8333C16.6667 16.2936 16.2927 16.6667 15.8324 16.6666L15.8312 16.6667Z" fill="#888888"/>
</svg>
