<svg width="105" height="74" viewBox="0 0 105 74" fill="none" xmlns="http://www.w3.org/2000/svg">
<path d="M0 74L3.65615 54.5263C4.72253 48.6121 6.93145 42.3372 10.2829 35.7018C13.7106 28.9942 18.0903 22.539 23.4222 16.3363C28.8302 10.0614 35.0381 4.61598 42.0457 0L51.4146 9.19592C44.7116 15.4708 38.6942 22.5029 33.3624 30.2924C28.0305 38.0097 24.6409 45.9795 23.1937 54.2018L19.5375 74H0ZM53.5854 74L57.2416 54.5263C58.3079 48.6121 60.5169 42.3372 63.8683 35.7018C67.296 28.9942 71.6757 22.539 77.0076 16.3363C82.4157 10.0614 88.6235 4.61598 95.6311 0L105 9.19592C98.2971 15.4708 92.2797 22.5029 86.9478 30.2924C81.6159 38.0097 78.2263 45.9795 76.7791 54.2018L73.123 74H53.5854Z" fill="#F4F6FD"/>
</svg>
