<svg width="14" height="14" viewBox="0 0 14 14" fill="none" xmlns="http://www.w3.org/2000/svg">
<g clip-path="url(#clip0_75_727)">
<path d="M6.57694 10.465H7.30893C7.30893 10.465 7.53021 10.4405 7.64277 10.3187C7.7469 10.207 7.74307 9.99716 7.74307 9.99716C7.74307 9.99716 7.72852 9.01479 8.18487 8.87008C8.63432 8.72766 9.21165 9.81953 9.82343 10.2399C10.2859 10.5576 10.6373 10.488 10.6373 10.488L12.2736 10.465C12.2736 10.465 13.1296 10.4122 12.7238 9.73913C12.6909 9.684 12.4872 9.24144 11.5072 8.33181C10.4811 7.3793 10.619 7.53397 11.8548 5.88698C12.6074 4.88394 12.9084 4.2714 12.8142 4.00953C12.7246 3.75992 12.171 3.82577 12.171 3.82577L10.3303 3.83649C10.3303 3.83649 10.194 3.81811 10.0922 3.8786C9.99341 3.93832 9.92986 4.07615 9.92986 4.07615C9.92986 4.07615 9.63813 4.85255 9.24917 5.51257C8.42912 6.90534 8.10064 6.97885 7.96665 6.89232C7.65502 6.69095 7.73312 6.08223 7.73312 5.65039C7.73312 4.30049 7.93755 3.73771 7.3342 3.59224C7.13359 3.544 6.98658 3.51184 6.47433 3.50648C5.81738 3.49959 5.26073 3.50878 4.94603 3.66268C4.73624 3.76528 4.57468 3.99422 4.67345 4.00724C4.79519 4.02331 5.07084 4.08151 5.21708 4.28058C5.40621 4.53709 5.39932 5.11441 5.39932 5.11441C5.39932 5.11441 5.50804 6.7032 5.14588 6.90075C4.89703 7.03627 4.5563 6.75986 3.82508 5.49572C3.45066 4.84872 3.16736 4.13281 3.16736 4.13281C3.16736 4.13281 3.11299 3.99958 3.01575 3.92837C2.89783 3.84185 2.73245 3.81428 2.73245 3.81428L0.982099 3.825C0.982099 3.825 0.71947 3.83266 0.622994 3.94675C0.537238 4.04858 0.616103 4.25838 0.616103 4.25838C0.616103 4.25838 1.98667 7.46429 3.53794 9.08064C4.96135 10.5622 6.57694 10.465 6.57694 10.465Z" fill="#757575"/>
</g>
<defs>
<clipPath id="clip0_75_727">
<rect width="12.25" height="12.25" fill="white" transform="translate(0.583069 0.875)"/>
</clipPath>
</defs>
</svg>
