<svg width="14" height="14" viewBox="0 0 14 14" fill="none" xmlns="http://www.w3.org/2000/svg">
<g clip-path="url(#clip0_75_735)">
<path d="M12.8363 3.95389C12.6958 3.43177 12.2842 3.02019 11.7621 2.8796C10.8084 2.61865 6.9935 2.61865 6.9935 2.61865C6.9935 2.61865 3.17874 2.61865 2.22503 2.86971C1.71302 3.01015 1.29132 3.43185 1.15088 3.95389C0.899902 4.90753 0.899902 6.88524 0.899902 6.88524C0.899902 6.88524 0.899902 8.87293 1.15088 9.8166C1.29147 10.3386 1.70298 10.7502 2.2251 10.8908C3.18878 11.1518 6.99365 11.1518 6.99365 11.1518C6.99365 11.1518 10.8084 11.1518 11.7621 10.9008C12.2842 10.7603 12.6958 10.3487 12.8364 9.82664C13.0873 8.87293 13.0873 6.89529 13.0873 6.89529C13.0873 6.89529 13.0974 4.90753 12.8363 3.95389ZM5.77892 8.71233V5.05816L8.95121 6.88524L5.77892 8.71233Z" fill="#757575"/>
</g>
<defs>
<clipPath id="clip0_75_735">
<rect width="13" height="13" fill="white" transform="translate(0.5 0.5)"/>
</clipPath>
</defs>
</svg>
